<?xml version="1.0" encoding="iso-8859-1"?>
<!-- Generator: Adobe Illustrator 21.0.0, SVG Export Plug-In . SVG Version: 6.00 Build 0)  -->
<svg xmlns="http://www.w3.org/2000/svg" xmlns:xlink="http://www.w3.org/1999/xlink" version="1.1" id="Capa_1" x="0px" y="0px" viewBox="0 0 512 512" style="enable-background:new 0 0 512 512;" xml:space="preserve" width="512" height="512">
<g>
	<path style="fill-rule:evenodd;clip-rule:evenodd;fill:#FFF3F3;" d="M45,91.88h422c16.5,0,30,13.5,30,30v110c0,16.5-13.5,30-30,30   H45c-16.5,0-30-13.5-30-30v-110C15,105.379,28.5,91.88,45,91.88z"/>
	<path style="fill:#00347B;" d="M467,276.88H45c-24.813,0-45-20.187-45-45v-110c0-24.813,20.187-45,45-45h422   c24.813,0,45,20.187,45,45v110C512,256.693,491.813,276.88,467,276.88z M45,106.88c-8.271,0-15,6.729-15,15v110   c0,8.271,6.729,15,15,15h422c8.271,0,15-6.729,15-15v-110c0-8.271-6.729-15-15-15H45z"/>
	<path style="fill-rule:evenodd;clip-rule:evenodd;fill:#E9DFDA;" d="M467,91.88H256v170h211c16.5,0,30-13.5,30-30v-110   C497,105.379,483.5,91.88,467,91.88z"/>
	<path style="fill:#001035;" d="M467,76.88H256v30h211c8.271,0,15,6.729,15,15v110c0,8.271-6.729,15-15,15H256v30h211   c24.813,0,45-20.187,45-45v-110C512,97.067,491.813,76.88,467,76.88z"/>
	<g>
		<path style="fill:#FF4C04;" d="M256.005,435.12c-56.435,0-102.349-45.913-102.349-102.349c0-56.436,45.914-102.35,102.349-102.35    s102.349,45.914,102.349,102.349S312.441,435.12,256.005,435.12z"/>
	</g>
	<path style="fill:#E10000;" d="M256.005,230.422c-0.002,0-0.004,0-0.005,0V435.12c0.002,0,0.004,0,0.005,0   c56.435,0,102.349-45.914,102.349-102.349S312.441,230.422,256.005,230.422z"/>
	<path style="fill:#FFCB00;" d="M129.909,176.88c6.575-4.337,8.722-13.089,4.732-20c-3.99-6.911-12.644-9.427-19.687-5.901   c-0.469-7.862-6.975-14.099-14.954-14.099c-7.98,0-14.486,6.236-14.954,14.098c-7.043-3.526-15.696-1.009-19.686,5.902   c-3.99,6.911-1.842,15.663,4.732,20c-6.574,4.337-8.722,13.089-4.732,20c2.778,4.813,7.82,7.502,13.004,7.502   c2.259,0,4.545-0.514,6.682-1.583c0.477,7.854,6.98,14.081,14.954,14.081c7.974,0,14.476-6.227,14.954-14.081   c2.138,1.07,4.423,1.584,6.683,1.584c5.184,0,10.227-2.69,13.004-7.502C138.63,189.969,136.483,181.217,129.909,176.88z"/>
	<path style="fill:#FFCB00;" d="M233.909,176.88c6.575-4.337,8.722-13.089,4.732-20c-3.99-6.911-12.644-9.427-19.687-5.901   c-0.469-7.862-6.975-14.099-14.954-14.099c-7.98,0-14.486,6.236-14.954,14.098c-7.044-3.526-15.696-1.009-19.686,5.902   c-3.99,6.911-1.842,15.663,4.732,20c-6.574,4.337-8.722,13.089-4.732,20c2.778,4.813,7.82,7.502,13.004,7.502   c2.259,0,4.545-0.514,6.682-1.583c0.477,7.854,6.98,14.081,14.954,14.081c7.974,0,14.476-6.227,14.954-14.081   c2.138,1.07,4.423,1.584,6.683,1.584c5.184,0,10.227-2.69,13.004-7.502C242.63,189.969,240.483,181.217,233.909,176.88z"/>
	<path style="fill:#ECBD00;" d="M337.909,176.88c6.575-4.337,8.722-13.089,4.732-20c-3.99-6.911-12.644-9.427-19.687-5.901   c-0.469-7.862-6.975-14.099-14.954-14.099c-7.98,0-14.486,6.236-14.954,14.098c-7.043-3.526-15.696-1.009-19.686,5.902   c-3.99,6.911-1.842,15.663,4.732,20c-6.574,4.337-8.722,13.089-4.732,20c2.778,4.813,7.82,7.502,13.004,7.502   c2.259,0,4.545-0.514,6.682-1.583c0.477,7.854,6.98,14.081,14.954,14.081c7.974,0,14.476-6.227,14.954-14.081   c2.138,1.07,4.423,1.584,6.683,1.584c5.184,0,10.227-2.69,13.004-7.502C346.63,189.969,344.483,181.217,337.909,176.88z"/>
	<path style="fill:#ECBD00;" d="M441.909,176.88c6.575-4.337,8.722-13.089,4.732-20c-3.99-6.911-12.643-9.427-19.687-5.901   c-0.469-7.862-6.975-14.099-14.954-14.099c-7.98,0-14.486,6.236-14.954,14.098c-7.043-3.526-15.697-1.009-19.686,5.902   c-3.99,6.911-1.842,15.663,4.732,20c-6.574,4.337-8.722,13.089-4.732,20c2.778,4.813,7.82,7.502,13.004,7.502   c2.259,0,4.545-0.514,6.682-1.583c0.477,7.854,6.98,14.081,14.954,14.081c7.974,0,14.476-6.227,14.954-14.081   c2.138,1.07,4.423,1.584,6.683,1.584c5.184,0,10.227-2.69,13.004-7.502C450.63,189.969,448.483,181.217,441.909,176.88z"/>
	<path style="fill:#FFF3F3;" d="M281.611,332.771l18.585-18.585c7.072-7.072,7.072-18.538,0-25.611   c-7.072-7.072-18.538-7.072-25.611,0L256,307.16l-18.585-18.585c-7.072-7.073-18.539-7.073-25.611,0   c-7.072,7.072-7.072,18.539,0,25.611l18.585,18.585l-18.585,18.585c-7.072,7.072-7.072,18.538,0,25.611   c3.536,3.536,8.17,5.304,12.805,5.304c4.634,0,9.269-1.769,12.805-5.304L256,358.382l18.585,18.585   c3.536,3.536,8.171,5.304,12.805,5.304c4.635,0,9.269-1.768,12.805-5.304c7.072-7.072,7.072-18.539,0-25.611L281.611,332.771z"/>
	<path style="fill:#E9DFDA;" d="M281.611,332.771l18.585-18.585c7.072-7.072,7.072-18.538,0-25.611   c-7.072-7.072-18.538-7.072-25.611,0L256,307.16v51.221l18.585,18.585c3.536,3.536,8.171,5.304,12.805,5.304   c4.635,0,9.269-1.768,12.805-5.304c7.072-7.072,7.072-18.539,0-25.611L281.611,332.771z"/>
</g>















</svg>
