<svg height="512pt" viewBox="0 0 512 512" width="512pt" xmlns="http://www.w3.org/2000/svg" xmlns:xlink="http://www.w3.org/1999/xlink"><linearGradient id="a"><stop offset="0" stop-color="#80d8ff"/><stop offset="1" stop-color="#ea80fc"/></linearGradient><linearGradient id="b" gradientUnits="userSpaceOnUse" x1="3" x2="515.6597" xlink:href="#a" y1="442.696" y2="442.696"/><linearGradient id="c" gradientUnits="userSpaceOnUse" x1="3" x2="515.6597" xlink:href="#a" y1="182.0293" y2="182.0293"/><linearGradient id="d" gradientUnits="userSpaceOnUse" x1="3" x2="515.6597" xlink:href="#a" y1="157.0293" y2="157.0293"/><linearGradient id="e" gradientUnits="userSpaceOnUse" x1="3" x2="515.6597" xlink:href="#a" y1="157.0291" y2="157.0291"/><path d="m393.390625 373.390625h-42.78125c-65.402344 0-118.609375 53.210937-118.609375 118.609375 0 11.046875 8.953125 20 20 20h240c11.046875 0 20-8.953125 20-20 0-65.398438-53.207031-118.609375-118.609375-118.609375zm-118.8125 98.609375c8.867187-33.691406 39.59375-58.609375 76.03125-58.609375h42.78125c36.4375 0 67.164063 24.917969 76.03125 58.609375zm0 0" fill="url(#b)"/><path d="m492 0h-472c-11.046875 0-20 8.953125-20 20v274.058594c0 11.046875 8.953125 20 20 20h285.066406c8.625 28.882812 35.421875 50 67.070313 50 31.648437 0 58.445312-21.117188 67.074219-50h52.789062c11.046875 0 20-8.953125 20-20v-274.058594c0-11.046875-8.953125-20-20-20zm-119.863281 324.058594c-16.539063 0-30-13.457032-30-30 0-16.542969 13.460937-30 30-30 16.542969 0 30 13.457031 30 30 0 16.542968-13.457031 30-30 30zm99.863281-50h-32.789062c-8.628907-28.878906-35.425782-50-67.074219-50-31.648438 0-58.445313 21.121094-67.070313 50h-265.066406v-234.058594h432zm0 0" fill="url(#c)"/><path d="m320.523438 210.503906c7.8125 7.8125 20.472656 7.8125 28.285156 0l25.191406-25.191406 25.191406 25.191406c7.808594 7.808594 20.472656 7.8125 28.285156 0 7.808594-7.8125 7.808594-20.472656 0-28.285156l-25.191406-25.191406 25.191406-25.1875c7.808594-7.8125 7.808594-20.476563 0-28.285156-7.8125-7.8125-20.476562-7.8125-28.285156 0l-25.191406 25.191406-25.191406-25.191406c-7.8125-7.8125-20.472656-7.8125-28.285156 0-7.808594 7.808593-7.808594 20.472656 0 28.285156l25.191406 25.1875-25.191406 25.191406c-7.808594 7.8125-7.808594 20.476562 0 28.285156zm0 0" fill="url(#d)"/><path d="m121.9375 205.199219c7.304688 9.835937 21.597656 10.828125 30.203125 2.222656l72.5-72.5c7.8125-7.8125 7.8125-20.476563 0-28.285156-7.808594-7.808594-20.472656-7.8125-28.28125 0l-56.113281 56.109375-25.519532-34.386719c-6.582031-8.871094-19.109374-10.722656-27.980468-4.140625-8.867188 6.582031-10.722656 19.109375-4.140625 27.976562zm0 0" fill="url(#e)"/></svg>